# xmcd
#
# Track frame offsets:
#	150
#	15203
#	28431
#	38137
#	47473
#	56857
#	66660
#	77794
#	89740
#	99878
#
# Disc length: 1523 seconds
#
# Revision: 0
# Processed by: cddbd v1.5.2PL0 Copyright (c) Steve Scherf et al.
# Submitted via: EasyCDDAExtractor 10.5.1.1
#
DISCID=8105f10a
DTITLE=The Stanley Brothers - Sweeter Than the Flowers
DYEAR=1900
DGENRE=Country
TTITLE0=Sweeter Than the Flowers
TTITLE1=Rollin' on Rubber Wheels
TTITLE2=Stone Walls And Steel Bars
TTITLE3=Standing Room Only (Outside Your Heart)
TTITLE4=Old Rattler
TTITLE5=Next Sunday Darling Is My Birthday
TTITLE6=I Don't Want Your Rambling Letters
TTITLE7=Still Trying To Get To Little Rock
TTITLE8=Old And In The Way
TTITLE9=Prayer Of A Truck Driver's Son
EXTD=
EXTT0=
EXTT1=
EXTT2=
EXTT3=
EXTT4=
EXTT5=
EXTT6=
EXTT7=
EXTT8=
EXTT9=
PLAYORDER=
